<?xml version="1.0" standalone="no"?><!DOCTYPE svg PUBLIC "-//W3C//DTD SVG 1.1//EN" "http://www.w3.org/Graphics/SVG/1.1/DTD/svg11.dtd"><svg t="1663046100588" class="icon" viewBox="0 0 1586 1024" version="1.1" xmlns="http://www.w3.org/2000/svg" p-id="1999" xmlns:xlink="http://www.w3.org/1999/xlink" width="309.765625" height="200"><path d="M160.587 1019.543h1261.327a145.569 145.569 0 0 0 145.549-145.529V146.291A145.528 145.528 0 0 0 1421.914 0.803H160.587A145.569 145.569 0 0 0 15.06 146.312v727.702a145.589 145.589 0 0 0 145.528 145.549z" fill="#F4B459" p-id="2000"></path><path d="M63.85 981.956L670.94 514.77 65.176 37.205c-30.48 26.705-50.116 65.396-50.116 109.107v727.702c0 43.028 19.074 81.318 48.79 107.962zM1518.37 38.049L888.832 516.116l628.957 466.563c30.278-26.644 49.694-65.255 49.694-108.685V146.332c0-43.21-19.215-81.6-49.092-108.283z" fill="#E8AB54" p-id="2001"></path><path d="M1548.248 944.971l-530.151-424.197L1554.593 86.88a145.669 145.669 0 0 0-55.738-63.688L813.578 571.37l-703.83-560.99a145.609 145.609 0 0 0-69.39 54.09L607.03 518.988 47.666 964.668a144.946 144.946 0 0 0 75.214 49.293l554.165-438.312 33.812 27.266a142.436 142.436 0 0 0 205.603 0l31.483-25.46 538.423 426.366a145.087 145.087 0 0 0 61.862-58.83z" fill="#FADAAC" p-id="2002"></path></svg>